<svg xmlns="http://www.w3.org/2000/svg" xmlns:xlink="http://www.w3.org/1999/xlink" width="300" zoomAndPan="magnify" viewBox="0 0 224.87999 225" height="300" preserveAspectRatio="xMidYMid meet" version="1.0"><defs><g/><clipPath id="b04d23a9ba"><path d="M 4 9 L 220 9 L 220 217.585938 L 4 217.585938 Z M 4 9 " clip-rule="nonzero"/></clipPath></defs><g clip-path="url(#b04d23a9ba)"><path fill="#161617" d="M 4.976562 198.828125 C 4.976562 201.511719 4.78125 204.351562 5.222656 207 C 6.933594 217.25 16.085938 217.582031 24.027344 217.585938 L 192.78125 217.582031 C 197.84375 217.582031 202.941406 217.457031 208 217.585938 C 222.113281 214.464844 219.648438 202.0625 219.644531 191.171875 L 219.648438 28.171875 C 219.648438 25.246094 219.890625 22.023438 219.230469 19.167969 C 216.582031 7.679688 204.457031 9.589844 195.726562 9.59375 L 25.542969 9.589844 C 22.585938 9.585938 19.488281 9.398438 16.546875 9.59375 C 2.679688 11.839844 4.972656 25.394531 4.972656 35.726562 Z M 162.050781 51.230469 L 162.472656 51.210938 C 186.753906 50.171875 188.648438 89.097656 163.351562 89.886719 C 137.203125 89.929688 137.347656 51.175781 162.050781 51.230469 Z M 30.050781 151.078125 C 31.785156 149.039062 65.082031 115.695312 68.070312 112.980469 C 73.097656 116.324219 86.285156 130.613281 91.066406 135.386719 C 91.066406 135.386719 116.9375 161.027344 119.015625 162.828125 C 120.535156 161.570312 155.820312 126.140625 155.820312 126.140625 C 155.820312 126.140625 192.667969 163.296875 194.472656 164.824219 L 194.472656 191.746094 L 30.050781 191.746094 Z M 30.050781 151.078125 " fill-opacity="1" fill-rule="nonzero"/></g><g fill="#161617" fill-opacity="1"><g transform="translate(82.288709, 72.392638)"><g><path d="M 1.671875 0 L 0.859375 0 L 0.859375 -5.34375 L 1.671875 -5.34375 Z M 0.796875 -6.796875 C 0.796875 -6.972656 0.835938 -7.101562 0.921875 -7.1875 C 1.015625 -7.28125 1.128906 -7.328125 1.265625 -7.328125 C 1.398438 -7.328125 1.515625 -7.28125 1.609375 -7.1875 C 1.703125 -7.101562 1.75 -6.972656 1.75 -6.796875 C 1.75 -6.609375 1.703125 -6.46875 1.609375 -6.375 C 1.515625 -6.289062 1.398438 -6.25 1.265625 -6.25 C 1.128906 -6.25 1.015625 -6.289062 0.921875 -6.375 C 0.835938 -6.46875 0.796875 -6.609375 0.796875 -6.796875 Z M 0.796875 -6.796875 "/></g></g></g></svg>